# xmcd
#
# Track frame offsets: 
#        150
#        17823
#        37521
#        59919
#        82767
#        100965
#        127263
#        145911
#        166284
#        190782
#        211155
#        233103
#
# Disc length: 3432 seconds
#
# Revision: 0
# Processed by: cddbd v1.5.2PL0 Copyright (c) Steve Scherf et al.
# Submitted via: ExactAudioCopy v1.0b4
#
DISCID=9d0d660c
DTITLE=Jay Jesse Johnson - Set The Blues On Fire
DYEAR=2015
DGENRE=Electric Blues
TTITLE0=Hell Or High Water
TTITLE1=Ghosts In Texas
TTITLE2=Since My Baby's Gone
TTITLE3=Wheelhouse Boogie
TTITLE4=Set The Blues On Fire
TTITLE5=Midnight Dream
TTITLE6=Voodoo Woman
TTITLE7=Don't Mess With Baby
TTITLE8=If I Knew Then
TTITLE9=Ace In The Hole
TTITLE10=Grinding Blues
TTITLE11=Rio De Los Suenos (River Of Dreams)
EXTD=
EXTT0=
EXTT1=
EXTT2=
EXTT3=
EXTT4=
EXTT5=
EXTT6=
EXTT7=
EXTT8=
EXTT9=
EXTT10=
EXTT11=
PLAYORDER=
